<?xml version="1.0" encoding="UTF-8"?>
<svg version="1.1" xmlns="http://www.w3.org/2000/svg" width="360" height="360">
<path d="M0 0 C2.12624496 1.60127402 2.90731157 2.4586373 3.36076355 5.10710144 C3.35410172 5.91762466 3.34743988 6.72814789 3.34057617 7.56323242 C3.34034958 8.48396042 3.34012299 9.40468842 3.33988953 10.35331726 C3.32440567 11.34402725 3.30892181 12.33473724 3.29296875 13.35546875 C3.28872391 14.37224197 3.28447906 15.3890152 3.28010559 16.43659973 C3.26329997 19.68716812 3.22564382 22.9371187 3.1875 26.1875 C3.17245562 28.38996501 3.15876679 30.59243973 3.14648438 32.79492188 C3.11339036 38.19682572 3.06317223 43.59836872 3 49 C3.92522461 48.98428955 4.85044922 48.9685791 5.80371094 48.95239258 C40.84326927 48.43659287 40.84326927 48.43659287 57 52 C57.75104004 52.1556543 58.50208008 52.31130859 59.27587891 52.47167969 C80.36671447 56.94616989 100.25459006 65.82991459 118 78 C118.57717773 78.3909082 119.15435547 78.78181641 119.74902344 79.18457031 C144.71014698 96.37212904 163.98113895 121.69184901 172 151 C172.31839844 152.11890625 172.63679688 153.2378125 172.96484375 154.390625 C176.97844169 170.888917 176.65536237 189.68746008 172 206 C171.6596875 207.21300781 171.319375 208.42601562 170.96875 209.67578125 C164.95737153 229.23307 154.30287763 246.56572208 141 262 C140.39285156 262.72960937 139.78570312 263.45921875 139.16015625 264.2109375 C135.14272391 268.96626557 130.82351773 273.07032278 126 277 C125.05253906 277.7734375 124.10507812 278.546875 123.12890625 279.34375 C117.35889026 283.9619225 111.39870553 288.21617361 105.125 292.125 C104.51906006 292.5154248 103.91312012 292.90584961 103.28881836 293.30810547 C99.0472103 295.86760632 95.9113957 296.47724509 91 296 C89.0625 294.9375 89.0625 294.9375 88 293 C87.46835196 288.52209847 87.68966061 286.49175102 90.125 282.6328125 C91.07250811 281.45475246 92.03151905 280.28587971 93 279.125 C104.47263103 264.39194097 113.08473224 245.04924084 111 226 C108.92704815 212.02608353 101.93973482 200.80047409 92 191 C91.39800781 190.38769531 90.79601562 189.77539062 90.17578125 189.14453125 C69.27765183 169.33437386 38.26517529 163.06708214 10.53515625 161.44921875 C9.44080261 161.38317444 9.44080261 161.38317444 8.32434082 161.3157959 C6.54965667 161.20892225 4.77484142 161.10422928 3 161 C3.00999275 161.8544445 3.00999275 161.8544445 3.02018738 162.72615051 C3.08648119 168.64688481 3.13177567 174.56751393 3.16479492 180.48852539 C3.17989525 182.69918092 3.20037709 184.90980643 3.22631836 187.12036133 C3.26264655 190.29515993 3.27971384 193.46956297 3.29296875 196.64453125 C3.30845261 197.63524124 3.32393646 198.62595123 3.33988953 199.64668274 C3.34011612 200.56741074 3.34034271 201.48813873 3.34057617 202.43676758 C3.35056892 203.65255241 3.35056892 203.65255241 3.36076355 204.89289856 C2.90635348 207.54695856 2.15105974 208.41651431 0 210 C-4.11229043 210.54286077 -6.26927663 210.44264973 -9.84375 208.27734375 C-10.7203125 207.50519531 -11.596875 206.73304688 -12.5 205.9375 C-13.44488281 205.11378906 -14.38976562 204.29007813 -15.36328125 203.44140625 C-18.09276342 200.91410795 -20.74921507 198.34441286 -23.3359375 195.671875 C-25.72486855 193.27172831 -28.2792443 191.0844203 -30.84375 188.875 C-33.19962958 186.82640906 -35.5050746 184.72796998 -37.8125 182.625 C-41.16801725 179.59026816 -44.58838182 176.6958109 -48.125 173.875 C-53.72851799 169.34754877 -58.94940933 164.45649907 -64.16650391 159.49169922 C-68.09344779 155.75858082 -72.08833114 152.13148619 -76.1809082 148.58056641 C-78.48038724 146.58260274 -80.74188295 144.54451139 -83 142.5 C-85.98062721 139.81016569 -88.97245233 137.13689636 -92 134.5 C-95.02754767 131.86310364 -98.01937279 129.18983431 -101 126.5 C-106.39771943 121.63211806 -111.80156607 116.77924665 -117.4375 112.1875 C-120.39096688 109.66624778 -120.89042071 108.98621365 -121.3125 105.1875 C-120.70790662 99.02064756 -115.78164541 95.81370562 -111.328125 92.01171875 C-108.73122965 89.76775717 -106.21144798 87.45063778 -103.6875 85.125 C-100.14990052 81.8927002 -96.55882744 78.79943674 -92.8125 75.8125 C-87.22616747 71.30972335 -82.0293788 66.43633217 -76.83325195 61.49145508 C-72.90637983 57.7584293 -68.91158154 54.13141042 -64.8190918 50.58056641 C-62.51961276 48.58260274 -60.25811705 46.54451139 -58 44.5 C-52.6889392 39.71199821 -47.33868649 34.97812349 -41.8828125 30.35546875 C-35.70918736 25.11471972 -29.65112641 19.79701032 -23.75 14.25 C-6.82905082 -1.53305222 -6.82905082 -1.53305222 0 0 Z " fill="#F34236" transform="translate(153,32)"/>
<path d="M0 0 C0.99 0.495 0.99 0.495 2 1 C2 16.18 2 31.36 2 47 C7.1975 46.938125 12.395 46.87625 17.75 46.8125 C37.78049167 46.73837283 55.73367036 49.48599389 75 55 C70.79533078 56.26180724 67.28476004 55.53811027 63.0625 54.6875 C62.35931641 54.55666016 61.65613281 54.42582031 60.93164062 54.29101562 C58.00211749 53.72268265 55.25561084 53.10647129 52.49609375 51.95703125 C46.23719172 49.55729573 39.16001882 49.84748958 32.5390625 49.7890625 C30.75129225 49.76103727 28.96353191 49.73237323 27.17578125 49.703125 C24.38427562 49.66163031 21.59296463 49.62470086 18.80126953 49.59863281 C16.08849106 49.57116883 13.37652956 49.5253582 10.6640625 49.4765625 C9.82453033 49.47330963 8.98499817 49.47005676 8.12002563 49.46670532 C5.77197266 49.41650391 5.77197266 49.41650391 2 49 C-0.11931075 45.82103387 -0.2469603 45.07025468 -0.22705078 41.43676758 C-0.22689972 40.51603958 -0.22674866 39.59531158 -0.22659302 38.64668274 C-0.21627045 37.65597275 -0.20594788 36.66526276 -0.1953125 35.64453125 C-0.1924826 34.62775803 -0.18965271 33.6109848 -0.18673706 32.56340027 C-0.17553383 29.31298092 -0.15042886 26.06283619 -0.125 22.8125 C-0.11497039 20.61003002 -0.10584451 18.40755572 -0.09765625 16.20507812 C-0.07559405 10.80329157 -0.04211508 5.40166541 0 0 Z " fill="#E0463E" transform="translate(154,34)"/>
<path d="M0 0 C-1.28261827 3.8478548 -3.06252948 4.84519327 -6.25 7.3125 C-10.7820635 10.87440058 -10.7820635 10.87440058 -14.625 15.125 C-17.38346979 18.46420027 -20.44984618 20.81515886 -23.9140625 23.38671875 C-26.00755387 24.92581159 -26.00755387 24.92581159 -27.6484375 26.70703125 C-29 28 -29 28 -31 28 C-31 28.66 -31 29.32 -31 30 C-34.46153846 33 -34.46153846 33 -37 33 C-37 33.66 -37 34.32 -37 35 C-38.29296875 36.33984375 -38.29296875 36.33984375 -40.1875 37.9375 C-40.9196875 38.56140625 -41.651875 39.1853125 -42.40625 39.828125 C-44.26016959 41.38050345 -46.11436745 42.9325496 -47.96875 44.484375 C-55.33302889 50.66251464 -62.45572852 57.04078257 -69.48632812 63.59521484 C-75.18930475 68.88794508 -80.97070904 74.0813679 -87 79 C-87.66 78.67 -88.32 78.34 -89 78 C-73.96890911 63.88193045 -73.96890911 63.88193045 -67.953125 58.703125 C-65.43387724 56.50634095 -62.96897004 54.25310381 -60.5 52 C-56.70990918 48.54356229 -52.88943967 45.13156146 -49.015625 41.76953125 C-46.71392236 39.74885044 -44.45235621 37.68687382 -42.1875 35.625 C-38.64839998 32.42347567 -35.02896894 29.36853937 -31.3125 26.375 C-27.53395282 23.31819778 -24.04498331 20.16509558 -20.66796875 16.67578125 C-18.26738095 14.26394948 -15.70478915 12.0607563 -13.125 9.84375 C-11.58690279 8.50922448 -10.06839945 7.15200463 -8.5625 5.78125 C-7.758125 5.0490625 -6.95375 4.316875 -6.125 3.5625 C-5.38507813 2.88316406 -4.64515625 2.20382813 -3.8828125 1.50390625 C-2 0 -2 0 0 0 Z " fill="#D8433F" transform="translate(146,33)"/>
<path d="M0 0 C11.78191017 0.12112751 24.77958316 1.40386057 35.64306641 6.32568359 C31.26784947 7.67028011 27.7865943 6.58186124 23.45556641 5.51318359 C11.63612596 2.78082712 -0.28347747 2.11104898 -12.35693359 1.32568359 C-12.35027176 1.89531326 -12.34360992 2.46494293 -12.33674622 3.05183411 C-12.27045241 8.9725684 -12.22515792 14.89319753 -12.19213867 20.81420898 C-12.17703834 23.02486451 -12.1565565 25.23549003 -12.13061523 27.44604492 C-12.09428705 30.62084352 -12.07721976 33.79524656 -12.06396484 36.97021484 C-12.04848099 37.96092484 -12.03299713 38.95163483 -12.01704407 39.97236633 C-12.01681747 40.89309433 -12.01659088 41.81382233 -12.01635742 42.76245117 C-12.00969559 43.5729744 -12.00303375 44.38349762 -11.99617004 45.21858215 C-12.45007902 47.86971546 -13.22150568 48.72995297 -15.35693359 50.32568359 C-18.54443359 50.95068359 -18.54443359 50.95068359 -22.35693359 50.32568359 C-25.30086016 48.25670024 -27.83887224 45.88952789 -30.35693359 43.32568359 C-27.35693359 43.32568359 -27.35693359 43.32568359 -24.54443359 45.82568359 C-24.08423828 46.28974609 -23.62404297 46.75380859 -23.14990234 47.23193359 C-20.57734486 48.8012497 -18.31405816 48.39568062 -15.35693359 48.32568359 C-15.34662613 47.73908463 -15.33631866 47.15248566 -15.32569885 46.54811096 C-15.21786165 40.4653049 -15.10324603 34.38265385 -14.98461914 28.30004883 C-14.94119694 26.02729523 -14.89952743 23.75450747 -14.85961914 21.48168945 C-14.8020924 18.22255127 -14.73834808 14.96358628 -14.67333984 11.70458984 C-14.65662735 10.6816835 -14.63991486 9.65877716 -14.62269592 8.60487366 C-14.6027507 7.66397385 -14.58280548 6.72307404 -14.56225586 5.75366211 C-14.54671158 4.92093277 -14.5311673 4.08820343 -14.51515198 3.23023987 C-14.07186915 -2.10578406 -4.01729151 0.0170465 0 0 Z " fill="#E3473E" transform="translate(168.35693359375,191.67431640625)"/>
<path d="M0 0 C1 3 1 3 0.33837891 4.80249023 C-0.21197021 5.79551147 -0.21197021 5.79551147 -0.7734375 6.80859375 C-1.38554077 7.92041016 -1.38554077 7.92041016 -2.01000977 9.0546875 C-2.46045654 9.84101563 -2.91090332 10.62734375 -3.375 11.4375 C-3.83253662 12.24574219 -4.29007324 13.05398438 -4.76147461 13.88671875 C-12.11982816 26.64983569 -21.45881188 37.72909875 -32 48 C-32.48855469 48.54527344 -32.97710937 49.09054687 -33.48046875 49.65234375 C-37.99512643 54.52578217 -43.03505842 58.36595993 -48.4375 62.1875 C-49.14100586 62.68644775 -49.84451172 63.18539551 -50.56933594 63.69946289 C-65.16037708 73.83400244 -65.16037708 73.83400244 -73 73 C-73 72.67 -73 72.34 -73 72 C-71.99710938 71.7525 -70.99421875 71.505 -69.9609375 71.25 C-65.82255964 70.06581933 -62.31938159 68.17409236 -58.625 66 C-57.99722656 65.64421875 -57.36945313 65.2884375 -56.72265625 64.921875 C-53.27559723 63.05772184 -53.27559723 63.05772184 -51 60 C-49.30527157 59.03633089 -47.60902461 58.07515163 -45.90234375 57.1328125 C-40.97103702 54.19630541 -36.9805751 50.08264113 -33 46 C-28 41 -28 41 -25.4375 38.5625 C-22.86883248 36.01249767 -22.86883248 36.01249767 -20.8125 32.6875 C-20.214375 31.800625 -19.61625 30.91375 -19 30 C-18.34 30 -17.68 30 -17 30 C-16.7525 29.278125 -16.505 28.55625 -16.25 27.8125 C-14.88223645 24.73503202 -13.10594978 22.61648305 -11 20 C-9.98308736 18.00854609 -8.98357352 16.00812926 -8 14 C-7.0409375 12.576875 -7.0409375 12.576875 -6.0625 11.125 C-3.70416059 7.55175847 -1.84074474 3.85773099 0 0 Z " fill="#D7443E" transform="translate(317,255)"/>
<path d="M0 0 C17.67767113 8.39487579 32.7842583 25.65071058 43 42 C43.38833008 42.61955566 43.77666016 43.23911133 44.17675781 43.87744141 C45.18523778 45.54604083 46.10057521 47.27017604 47 49 C46.505 49.99 46.505 49.99 46 51 C42.58177915 47.11985741 40.32004935 43.64009869 38 39 C36.45136762 36.86863481 34.84837672 34.79504231 33.20703125 32.734375 C32 31 32 31 32 29 C31.01 28.67 30.02 28.34 29 28 C27.421875 26.36328125 27.421875 26.36328125 25.75 24.3125 C22.92016377 20.96923356 19.98478086 18.13443925 16.60546875 15.359375 C15 14 15 14 12.6875 11.5625 C9.40118085 8.42903291 5.79778048 6.04350219 2.01171875 3.55078125 C1.34785156 3.03902344 0.68398438 2.52726562 0 2 C0 1.34 0 0.68 0 0 Z " fill="#DA443F" transform="translate(268,109)"/>
<path d="M0 0 C6.36537375 2.18241386 10.32161003 6.32161003 15 11 C15.66 11.33 16.32 11.66 17 12 C17 12.66 17 13.32 17 14 C17.59240479 14.27021973 18.18480957 14.54043945 18.79516602 14.81884766 C20.98110555 15.98987805 22.48932651 17.19435587 24.27734375 18.8984375 C25.17163086 19.74148437 25.17163086 19.74148437 26.08398438 20.6015625 C26.69564453 21.18679687 27.30730469 21.77203125 27.9375 22.375 C29.15338939 23.53028833 30.37080859 24.683969 31.58984375 25.8359375 C32.16718262 26.38217773 32.74452148 26.92841797 33.33935547 27.49121094 C34.8114354 28.82867844 36.3717775 30.06754531 37.94140625 31.2890625 C38.96041016 32.13597656 38.96041016 32.13597656 40 33 C40 33.66 40 34.32 40 35 C37.07356763 33.67143806 34.9299237 32.20435823 32.609375 29.98828125 C31.98659668 29.39893799 31.36381836 28.80959473 30.72216797 28.20239258 C30.07135254 27.57872803 29.42053711 26.95506348 28.75 26.3125 C27.39400147 25.03043267 26.0372396 23.74917218 24.6796875 22.46875 C24.03612305 21.8603125 23.39255859 21.251875 22.72949219 20.625 C18.49823073 16.64938223 14.08084135 12.90445562 9.6328125 9.17578125 C9.03484863 8.67328857 8.43688477 8.1707959 7.82080078 7.65307617 C6.62117918 6.64631409 5.41908359 5.6424915 4.21435547 4.6418457 C2.79122652 3.44945463 1.39304224 2.22740612 0 1 C0 0.67 0 0.34 0 0 Z " fill="#D8443F" transform="translate(98,199)"/>
<path d="M0 0 C0 3 0 3 -1 5 C-1.66 5 -2.32 5 -3 5 C-3 5.66 -3 6.32 -3 7 C-4.53270571 8.35135503 -6.12776773 9.63253887 -7.75 10.875 C-10.39627693 12.91000244 -12.87023238 14.8670112 -15.203125 17.2578125 C-17 19 -17 19 -19 19 C-21.32590854 22.63423209 -21.16265833 25.77088331 -21 30 C-23 28 -23 28 -23.375 25.1875 C-22.65219951 19.04369582 -17.82778508 15.85486079 -13.37109375 12.046875 C-10.5366278 9.59998842 -7.76580313 7.08624512 -5 4.5625 C-4.05125 3.69753906 -3.1025 2.83257812 -2.125 1.94140625 C-1.42375 1.30074219 -0.7225 0.66007812 0 0 Z " fill="#D5453E" transform="translate(55,112)"/>
<path d="M0 0 C1.26248663 4.38529954 0.28859532 6.18772745 -1.83203125 10.125 C-3.28081737 12.45081049 -5.00629581 14.12357252 -7 16 C-11.84311141 21.26561296 -11.84311141 21.26561296 -13.375 28 C-13.25125 28.99 -13.1275 29.98 -13 31 C-13.66 30.67 -14.32 30.34 -15 30 C-15.60713149 24.38403375 -14.60193971 21.73014555 -11.28515625 17.44335938 C-10.77855469 16.82267578 -10.27195313 16.20199219 -9.75 15.5625 C-5.77899713 10.57529561 -2.69583114 5.79603694 0 0 Z " fill="#D6433E" transform="translate(256,295)"/>
<path d="M0 0 C4.51005568 1.41744607 6.72985291 3.65380298 10 7 C14.76177314 10.86196444 14.76177314 10.86196444 20 14 C20 14.99 20 15.98 20 17 C20.99 17.33 21.98 17.66 23 18 C22.67 18.66 22.34 19.32 22 20 C6.02869815 6.12548917 6.02869815 6.12548917 0 0 Z " fill="#DA433F" transform="translate(34,142)"/>
<path d="M0 0 C2.54564692 1.13139863 4.2755211 2.24651888 6.375 4.125 C9.51457512 6.36755366 11.22684928 6.35099077 15 6 C15 5.34 15 4.68 15 4 C15.66 4 16.32 4 17 4 C17.33 3.34 17.66 2.68 18 2 C17.42655063 4.86724686 17.1385485 5.8614515 15 8 C11.25583208 8.67395023 8.95014053 8.65000888 5.76171875 6.46875 C3.74101634 4.7172353 1.81408068 2.96486142 0 1 C0 0.67 0 0.34 0 0 Z " fill="#D9433F" transform="translate(138,234)"/>
<path d="M0 0 C3.84964052 1.56837206 6.18685772 3.98101805 9 7 C9.48339844 7.51304687 9.96679688 8.02609375 10.46484375 8.5546875 C11.875 10.125 11.875 10.125 14 13 C13.67 13.99 13.34 14.98 13 16 C12.64808594 15.50371094 12.29617187 15.00742188 11.93359375 14.49609375 C8.70472964 10.05324417 5.30244242 6.1315416 1.3203125 2.34765625 C0 1 0 1 0 0 Z " fill="#D7443F" transform="translate(242,219)"/>
<path d="M0 0 C3.52238047 1.56367357 6.27123994 3.69495889 9.25 6.125 C10.14203125 6.84945312 11.0340625 7.57390625 11.953125 8.3203125 C12.62859375 8.87460938 13.3040625 9.42890625 14 10 C13.67 10.99 13.34 11.98 13 13 C10.8303243 11.02404535 8.66418031 9.04445723 6.5 7.0625 C5.87996094 6.49853516 5.25992188 5.93457031 4.62109375 5.35351562 C3.06178382 3.92272025 1.52862521 2.46353265 0 1 C0 0.67 0 0.34 0 0 Z " fill="#D9433E" transform="translate(57,162)"/>
<path d="M0 0 C3 0 3 0 5.4375 2.25 C6.283125 3.1575 7.12875 4.065 8 5 C9.1446875 6.1446875 9.1446875 6.1446875 10.3125 7.3125 C10.869375 7.869375 11.42625 8.42625 12 9 C11.67 9.66 11.34 10.32 11 11 C9.16365304 9.35742342 7.3308593 7.71117305 5.5 6.0625 C4.97535156 5.59392578 4.45070313 5.12535156 3.91015625 4.64257812 C2.5878256 3.44904592 1.29166061 2.22665821 0 1 C0 0.67 0 0.34 0 0 Z " fill="#D8443F" transform="translate(74,177)"/>
</svg>
